<svg width="36" height="24" viewBox="0 0 36 24" fill="none" xmlns="http://www.w3.org/2000/svg">
<rect x="27" y="21" width="6" height="6" transform="rotate(180 27 21)" fill="white"/>
<rect x="21" y="24" width="6" height="6" transform="rotate(180 21 24)" fill="white"/>
<rect x="30" y="15" width="6" height="6" transform="rotate(180 30 15)" fill="white"/>
<rect x="24" y="15" width="6" height="6" transform="rotate(180 24 15)" fill="white"/>
<rect x="18" y="15" width="6" height="6" transform="rotate(180 18 15)" fill="white"/>
<rect x="12" y="15" width="6" height="6" transform="rotate(180 12 15)" fill="white"/>
<rect x="6" y="15" width="6" height="6" transform="rotate(180 6 15)" fill="white"/>
<rect x="36" y="15" width="6" height="6" transform="rotate(180 36 15)" fill="white"/>
<rect x="27" y="9" width="6" height="6" transform="rotate(180 27 9)" fill="white"/>
<rect x="21" y="6" width="6" height="6" transform="rotate(180 21 6)" fill="white"/>
</svg>
