<svg width="150" height="256" viewBox="0 0 150 256" fill="none" xmlns="http://www.w3.org/2000/svg">
<g clip-path="url(#clip0_12082_1599)">
<path d="M29.0253 252.377V230.14H26.0403V227.019H22.7622V221.651H19.176V215.982H15.5927V208.534H11.1001V197.168H6.30535V180.441H3.62549V129.606H6.30535V63.6377H8.68309V56.1117H11.6651V52.5222H26.6778V55.209H29.6144L29.696 61.8656H30.7142V32.9177H33.6962V23.0007L37.2371 23.0038V20.0241H53.1652V23.0098H56.4131V31.9909H57.1956V16.7668H59.8755V6.60828H62.5553V3.62262H80.5228V6.60828H83.1967V16.7668H85.8795V23.1577H87.4506V14.6596H90.8435V11.6528L95.3542 11.6739L100.696 11.6709H106.406L106.403 14.6566H109.379V22.7079H112.66V100.226H115.34V105.594H116.122V100.229H118.796L118.793 97.5456H121.479V93.8596L123.588 93.8536L123.585 91.8762H126.839V90.0981H139.447V92.1751H142.13L142.127 95.1607H144.803V100.223H146.374V114.645H144.803V122.696H142.124V139.671H139.447V147.725H136.767V169.189H133.788V184.35H130.806V192.703H127.824V200.758H125.446V206.421H122.769V209.709H120.095L120.101 212.999H116.808L116.811 216.284H114.409V219.396H111.714V222.877H109.34L109.334 238.491H112.011V252.377H29.0253Z" fill="black"/>
<path d="M76.8974 7.24528V10.2309H79.5742V20.3925H82.2541V98.4875H85.4506L85.4445 101.171H88.1244L88.212 26.7834H91.0762V18.2823H94.4721V15.2936H95.3422H100.702H102.781V18.2792H105.757V26.3306H109.038V103.849H111.717V130.684H114.394V117.268H117.077V109.217H119.754V103.852H122.434L122.428 101.168H125.108V97.4702L127.22 97.4642V95.4989H130.467V93.7177H135.824V95.7947H138.504V98.7804H141.181V103.846H142.755V111.019H141.181V119.07H138.504V136.048H135.827V144.1H133.15V165.567H130.171V180.728H127.189V189.081H124.21V197.132H121.833V202.798H119.156V206.086H116.476L116.482 209.377H113.192V212.661H110.796V215.771H108.104V219.254H105.732L105.72 242.11H108.397V248.752H32.6509V226.515H29.6689V223.393H26.3878V218.026H22.8045V212.356H19.2213V204.909H14.7287V193.546H9.93696V176.815H7.25709V133.226H9.93696V67.2574H12.3147V59.7313H15.2967V56.1419H23.0583V58.8257H26.0373L26.1219 65.4823H28.6839V109.238H31.3668V111.894H34.3428V36.5404H37.3248V26.6264H40.8687V23.6438H49.5458V26.6294H52.7937V35.6106H55.4705V101.162H58.1504L58.1443 103.846H60.8242V20.3894H63.501V10.2279H66.1809V7.24226H76.8974M84.1484 0H58.9299V2.98566H56.25V13.1472H53.5732V16.4015H33.6146V19.3781H30.0707V26.6264V29.2951H27.0887V48.8996H8.0396V52.4891H5.05761V60.0151H2.67987V125.983H0V184.063H2.67987V200.794H7.4716V212.157H11.9642V219.605H15.5475V225.274H19.1307V230.642H22.4057V233.763H25.3908V256H115.627V234.868H112.953V226.503H115.334V223.019H118.026V219.909H120.431V216.625H123.724L123.718 213.334H126.389V210.047H129.066V204.38H131.443V196.329H134.422V187.976H137.404V172.815H140.383V151.348H143.06V143.297H145.737V126.318H148.414V118.267H149.988V96.6038H148.414V91.5381H145.743V88.5525H143.057V86.4755H123.198V88.2566H119.938V90.246L117.839 90.2521V93.926H116.271V19.0853H112.989V11.034H110.017V8.0483H102.762H95.3422H94.4872L87.2029 8.01509V11.037H86.8071V2.98566H84.1303V0H84.1484Z" fill="black"/>
<path d="M141.178 103.849V98.7804H138.501V95.7947H135.824V93.7177H130.467V95.4989H127.216V97.4641L125.108 97.4702V101.168H122.428L122.434 103.852H119.754V109.217H117.077V117.268H114.394V130.684H111.717V103.849H109.037V26.3306H105.756V18.2792H102.777V15.2936H100.702H95.342H94.4719V18.2822H91.076V26.7834H88.2118L88.1242 101.171H85.4444L85.4504 98.4875H82.2539V20.3894H79.574V10.2279H76.8972V7.24225H66.1807V10.2279H63.5009V20.3894H60.824V103.849H58.1442L58.1502 101.165H55.4703V35.6136H52.7935V26.6324H49.5456V23.6468H40.8686V26.6324H37.3246V36.5434H34.3426V111.9H31.3667V109.244H28.6838V65.4883H26.1217L26.0371 58.8317H23.0582V56.1479H15.2935V59.7373H12.3115V67.2634H9.93377V133.232H7.25391V176.821H9.93377V193.552H14.7255V204.915H19.2181V212.362H22.8014V218.032H26.3846V223.399H29.6657V226.521H32.6477V248.758H108.382V242.116H105.702L105.714 219.26H108.086V215.777H110.778V212.667H113.177V209.383H116.464L116.458 206.092H119.138V202.805H121.814V197.138H124.192V189.087H127.171V180.734H130.153V165.573H133.132V144.106H135.809V136.054H138.486V119.076H141.163V111.025H142.737V103.852H141.163M19.0308 80.6249H24.3936V83.3117H19.0308V80.6249ZM26.3302 117.467H23.6503V114.78H26.3302V117.467ZM27.0885 102.986H24.4087V105.672H19.0429V102.986H24.4087V100.299H27.0885V102.986ZM27.0885 80.6249H24.4087V77.9381H27.0885V80.6249ZM99.9676 49.126H105.33V46.4392H108.007V49.126H105.33V51.8128H99.9676V49.126ZM99.9676 77.0173H105.33V74.3638H108.007V77.0505H105.33V79.7041H99.9676V77.0173ZM107.602 96.1268V98.8136H104.919V96.1268H107.602ZM78.2447 40.0573H80.9276V42.7441H78.2447V40.0573ZM78.2447 71.68H80.9276V74.3668H78.2447V71.68ZM72.8638 42.7592H78.2266V45.446H72.8638V42.7592ZM72.8638 74.3638H78.2266V77.0505H72.8638V74.3638ZM80.0544 95.6649V98.3517H77.3746V95.6649H80.0544ZM45.7721 56.1419H51.1348V53.4551H53.8147V56.1419H51.1348V58.8287H45.7721V56.1419ZM47.8658 87.7524H45.1829V85.0656H50.5457V82.3819H53.2255V85.0687H50.5457V87.7524H47.8658ZM52.6757 101.6V104.287H49.9928V101.6H52.6757ZM60.824 138.735C60.815 139.626 60.8301 140.528 60.824 141.419C59.0415 141.443 57.2469 141.383 55.4643 141.419C55.4583 142.309 55.4734 143.212 55.4643 144.103C54.5761 144.112 53.6757 144.085 52.7875 144.103C52.7814 144.993 52.7965 145.893 52.7875 146.786C51.0049 146.811 49.2103 146.75 47.4308 146.786C47.4217 147.677 47.4398 148.577 47.4308 149.47C46.5395 149.482 45.6391 149.452 44.7509 149.47C44.7418 150.361 44.7599 151.263 44.7509 152.154C42.9683 152.169 41.1737 152.13 39.3942 152.154C39.3851 153.045 39.4032 153.947 39.3942 154.838C37.6116 154.862 35.814 154.802 34.0344 154.838C34.0284 155.728 34.0435 156.631 34.0344 157.521H31.3515V154.835C32.2428 154.823 33.1432 154.853 34.0314 154.835C34.0405 153.944 34.0224 153.041 34.0314 152.151C35.814 152.136 37.6086 152.175 39.3912 152.151C39.4002 151.26 39.3821 150.361 39.3912 149.467C41.1737 149.443 42.9683 149.503 44.7479 149.467C44.7569 148.577 44.7388 147.677 44.7479 146.783C45.6361 146.771 46.5395 146.801 47.4247 146.783C47.4338 145.893 47.4156 144.993 47.4247 144.103C49.2042 144.078 51.0019 144.139 52.7814 144.103C52.7935 143.209 52.7724 142.309 52.7814 141.416C53.6727 141.407 54.57 141.434 55.4613 141.416C55.4703 140.525 55.4522 139.626 55.4613 138.732C57.2438 138.708 59.0385 138.768 60.821 138.732C60.8301 137.841 60.812 136.939 60.821 136.048C61.7093 136.042 62.6096 136.06 63.4979 136.048C63.5069 135.158 63.4888 134.255 63.4979 133.365C64.3891 133.358 65.2864 133.377 66.1777 133.365C66.1868 132.474 66.1656 131.571 66.1777 130.681C67.066 130.675 67.9633 130.693 68.8546 130.681C68.8636 129.79 68.8485 128.888 68.8546 127.997C69.7458 127.991 70.6432 128.009 71.5344 127.997C71.5435 127.106 71.5254 126.204 71.5344 125.313H74.2143V128.003C73.326 128.009 72.4257 127.991 71.5375 128.003C71.5284 128.894 71.5465 129.793 71.5375 130.684C70.6492 130.69 69.7489 130.672 68.8606 130.684C68.8515 131.574 68.8667 132.477 68.8606 133.368C67.9724 133.374 67.072 133.355 66.1807 133.368C66.1717 134.258 66.1898 135.158 66.1807 136.051C65.2925 136.057 64.3922 136.039 63.5039 136.051C63.4948 136.942 63.513 137.845 63.5039 138.735C62.6156 138.747 61.7153 138.717 60.8271 138.735M66.1807 200.456H63.5039V178.989H66.1807V200.456ZM111.717 138.735C110.829 138.741 109.929 138.723 109.037 138.735C109.022 141.416 109.053 144.109 109.037 146.786C108.149 146.792 107.249 146.774 106.361 146.786C106.342 147.677 106.373 148.58 106.361 149.47C105.472 149.482 104.575 149.452 103.681 149.47C103.672 150.361 103.69 151.263 103.681 152.154C101.898 152.169 100.104 152.13 98.321 152.154C98.3119 153.045 98.3301 153.947 98.321 154.838C96.5385 154.853 94.7468 154.814 92.9643 154.838C92.9552 155.728 92.9703 156.628 92.9643 157.521C91.1818 157.537 89.3841 157.497 87.6046 157.521C87.5955 158.412 87.6136 159.312 87.6046 160.205C85.822 160.22 84.0274 160.181 82.2479 160.205C82.2388 161.096 82.2569 161.995 82.2479 162.886C80.4653 162.91 78.6677 162.85 76.8911 162.886C76.8821 163.777 76.8972 164.679 76.8911 165.57C75.9999 165.576 75.0995 165.558 74.2113 165.57C74.2022 166.46 74.2173 167.363 74.2113 168.254C73.323 168.26 72.4227 168.242 71.5314 168.254C71.5223 169.144 71.5405 170.047 71.5314 170.937C70.6432 170.943 69.7428 170.925 68.8546 170.937C68.8183 172.721 68.8787 174.521 68.8546 176.305H66.1747V170.934C67.063 170.928 67.9633 170.946 68.8515 170.934C68.8697 170.044 68.8425 169.141 68.8515 168.251C69.7398 168.245 70.6401 168.263 71.5314 168.251C71.5405 167.36 71.5223 166.457 71.5314 165.567C72.4227 165.561 73.323 165.579 74.2113 165.567C74.2173 164.676 74.2052 163.777 74.2113 162.883C75.0995 162.871 75.9999 162.901 76.8881 162.883C76.9002 161.992 76.8791 161.093 76.8881 160.199C78.6707 160.184 80.4683 160.22 82.2479 160.199C82.263 159.309 82.2388 158.409 82.2479 157.515C84.0304 157.5 85.8281 157.54 87.6046 157.515C87.6166 156.625 87.5985 155.722 87.6046 154.832C89.3871 154.817 91.1878 154.856 92.9673 154.832C92.9764 153.941 92.9583 153.038 92.9673 152.148C94.7499 152.133 96.5415 152.172 98.324 152.148C98.3331 151.257 98.315 150.355 98.324 149.464C100.104 149.44 101.901 149.5 103.684 149.464C103.69 148.574 103.675 147.674 103.684 146.78C104.575 146.774 105.469 146.792 106.361 146.78C106.415 144.103 106.321 141.407 106.361 138.729C107.249 138.723 108.149 138.741 109.037 138.729C109.05 136.942 109.031 135.143 109.037 133.362H111.72V138.732" fill="white"/>
</g>
<defs>
<clipPath id="clip0_12082_1599">
<rect width="150" height="256" fill="white"/>
</clipPath>
</defs>
</svg>
