<svg width="154" height="256" viewBox="0 0 154 256" fill="none" xmlns="http://www.w3.org/2000/svg">
<g clip-path="url(#clip0_12082_1637)">
<path d="M34.9189 251.532V223.884H32.1973V221.092H29.4757V218.296H26.7541V212.782H24.0326V209.989H21.311V204.475H18.5894V201.679H15.8678V196.165H13.1462V187.855H10.4247V174.031H7.69945V156.722H4.85449V101.121H7.69945V20.1087H10.4247V8.16858H14.2167V4.46777H34.4762V7.9936H37.9126V20.5257H40.6342V56.8301H66.5618V58.9002H67.4472V55.6201H70.6478V52.34H98.5458V55.6201H101.743V55.8286H129.713V60.6017H132.91V63.8818H136.107V92.859H139.373V105.287H142.643V119.111H145.909V124.625H149.127L148.949 164.001H146.246V174.102H143.524V185.134H140.803V190.651H138.081V193.444H135.36V198.958H132.638V204.475H129.917V207.268H127.195V215.574H124.473V234.287H127.195V251.532H34.9189Z" fill="black"/>
<path d="M30.1217 8.93556V12.4614H33.5581V24.9935H36.2797V74.6082H39.4767V64.9987H42.6736V61.2979H62.2037V64.9987H65.4006V68.2788H68.5976V63.368H71.7945V60.0879H74.9915V56.8078H94.1804V60.0879H97.3774V66.6518H100.574V63.5802H103.771V60.3001H125.344V65.0695H128.541V68.3496H131.738V97.3268H135.004V109.755H138.27V123.579H141.536V129.093H144.733L144.599 159.533H141.877V169.634H139.155V180.666H136.434V186.184H133.712V188.976H130.991V194.49H128.269V200.008H125.548V202.8H122.826V211.11H120.104V238.758H122.826V247.068H39.2735V219.42H36.5519V216.628H33.8303V213.835H31.1087V208.321H28.3871V205.529H25.6655V200.015H22.944V197.223H20.2224V191.709H17.5008V183.399H14.7792V169.575H12.0576V152.266H9.21269V105.6H12.0576V24.5765H14.7792V12.6364H18.5713V8.93556H30.1217ZM38.8307 0H9.86224V3.70081H6.07017V15.6409H3.34859V96.653H0.5V161.19H3.34496V178.499H6.06654V192.323H8.78812V200.633H11.5097V206.147H14.2313V208.939H16.9529V214.453H19.6744V217.246H22.396V222.76H25.1176V225.552H27.8392V228.344H30.5608V255.993H131.542V229.811H128.821V220.034H131.542V211.724H134.264V208.932H136.985V203.414H139.707V197.9H142.429V195.108H145.15V189.59H147.872V178.559H150.593V168.458H153.275L153.315 159.563L153.449 129.123L153.489 120.146H150.252V114.632H146.986V100.808H143.72V88.3801H140.455V59.4028H137.258V56.1228H134.061V51.3534H106.094V51.1449H102.897V47.8648H66.2897V51.1449H63.0927V52.3549H44.9888V16.0579H42.2672V3.52582H38.8307V0Z" fill="black"/>
<path d="M144.751 129.033H141.554V123.519H138.288V109.695H135.022V97.2673H131.757V68.29H128.56V65.0099H125.363V60.2405H103.79V63.5206H100.593V66.5922H97.3957V60.0283H94.1987V56.7482H75.0098V60.0283H71.8128V63.3084H68.6159V68.2192H65.4189V64.9392H62.2219V61.2383H42.6919V64.9392H39.4949V74.5486H36.298V24.9339H33.5764V12.4018H30.14V8.87598H18.5896V12.5768H14.7975V24.5169H12.0759V105.529H9.23096V152.195H12.0759V169.508H14.7975V183.332H17.5191V191.642H20.2407V197.156H22.9622V199.948H25.6838V205.462H28.4054V208.254H31.127V213.768H33.8486V216.561H36.5701V219.353H39.2917V247.001H122.855V238.691H120.134V211.043H122.855V202.733H125.577V199.941H128.298V194.423H131.02V188.909H133.741V186.116H136.463V180.599H139.185V169.567H141.906V159.466H144.628L144.762 129.026L144.751 129.033ZM115.761 66.8007H118.958V63.5206H122.155V66.8007H118.958V70.0808H115.761V66.8007ZM84.6623 63.5169H87.8592V60.2368H91.0562V63.5169H87.8592V66.797H84.6623V63.5169ZM68.7392 70.9446H71.9362V67.6645H82.2129V70.9446H71.9362V89.7949H75.1331V99.6389H78.3301V102.919H75.1331V99.6389H71.9362V89.7949H68.7392V70.9446ZM90.7877 109.483H93.9846V122.607H97.1816V132.451H93.9846V122.607H90.7877V112.763H84.8002V109.483H81.6032V106.203H84.8002V109.483H90.7877ZM84.7312 116.047V119.048H75.34V124.353H72.4152V119.048H75.34V116.047H84.7312ZM81.5343 106.203H78.3373V102.923H81.5343V106.203ZM65.5423 112.763H68.7392V132.38H71.9362V135.66H68.7392V132.38H65.5423V112.763ZM62.3453 101.452H65.5423V112.763H62.3453V101.452ZM52.6819 68.1485H55.8789V64.8684H59.0758V68.1485H55.8789V71.4286H52.6819V68.1485ZM47.6452 120.165H50.2325V117.164H60.1681V120.165H63.0929V123.165H60.1681V120.165H50.2325V123.724H47.6452V120.165ZM62.3453 137.481V140.761H48.0552V137.481H62.3453ZM20.4729 44.1342H26.8704V40.8541H30.0674V44.1342H26.8704V47.4143H20.4729V44.1342ZM25.8979 92.1852H29.0949V95.4652H25.8979V92.1852ZM26.7325 69.1277V72.4078H20.335V69.1277H26.7325V65.8476H29.9295V69.1277H26.7325ZM26.5511 125.191V128.75H23.082V125.191H26.5511V121.632H30.0202V118.072H26.5511V114.513H30.0202V118.072H38.5261V95.8003H35.3291V80.3716H38.5261V84.9809H41.723V88.261H38.5261V95.8003H41.723V121.632H44.92V134.197H48.1169V137.477H44.92V134.264H41.723V121.628H30.0202V125.187H26.5511V125.191ZM55.8099 152.768H49.0713V156.261H45.6675V159.753H39.2046V163.245H29.338V159.753H39.2046V156.261H45.6675V152.768H49.0713V149.276H55.8099V152.768ZM59.1447 149.35H55.741V145.858H59.1447V142.578H62.5485V146.07H59.1447V149.35ZM64.0436 181.861H60.8466V165.453H64.0436V181.861ZM67.3784 188.496H64.1815V181.932H67.3784V188.496ZM69.4214 163.711H66.2245V159.265H69.4214V163.711ZM71.9398 135.664H85.0723V138.944H71.9398V135.664ZM81.9407 149.209H78.8091V155.773H75.6121V159.053H72.4152V155.773H75.6121V149.209H78.7438V145.929H81.9407V149.209ZM100.382 135.664H97.1852V138.944H88.2693V142.574H85.0723V145.854H81.8754V142.574H85.0723V138.944H88.204V135.664V130.429H90.7223V135.664H97.1199V132.384H100.317V135.664H100.386H100.382ZM107.799 92.7958H104.602V96.0758H88.6104V92.7958H82.2129V89.5157H79.0159V86.2356H75.819V79.6717H79.0159V86.2356H82.2129V89.5157H88.6104V92.7958H104.602V89.5157H107.799V92.7958ZM122.227 151.793H115.83V148.513H112.633V145.233H115.83V148.513H122.227V151.793ZM131.753 96.2881H128.556V93.008H125.359V80.7886H122.162V77.5085H101.34V74.2284H82.2854V70.9483H101.34V74.2284H122.162V77.5085H125.359V80.7886H128.556V93.008H131.753V96.2881Z" fill="white"/>
</g>
<defs>
<clipPath id="clip0_12082_1637">
<rect width="153" height="256" fill="white" transform="translate(0.5)"/>
</clipPath>
</defs>
</svg>
