<svg width="34" height="64" viewBox="0 0 34 64" fill="none" xmlns="http://www.w3.org/2000/svg">
<g clip-path="url(#clip0_12082_1618)">
<path d="M7.82384 63.058V56.5898H7.1242V55.8707H6.40975V55.1517H5.69529V54.4326H4.98083V52.9953H4.26637V52.2763H3.55191V50.1199H2.83746V47.2445H2.12456V43.6642H1.43506V29.1128H2.12456V26.9871H2.83902V25.9541H3.55347V25.235H7.1983C7.20142 24.5584 7.20454 23.8173 7.2022 23.3063L7.19908 22.3612H7.83866V21.6421H8.55312V20.9231H13.942V19.9568H14.6564V19.0022H15.3709V18.2832H21.1263V19.0203H21.475V5.25395H22.1894V1.90834H22.9039V0.942017H27.4894V1.90834H28.2818V5.25474H28.9963V29.5493H29.7107V30.9866H30.4252V33.143H31.1397V34.5803H31.8541V36.0152L32.5662 36.0129V42.9302H31.8518V45.8056H31.1373V48.681H30.4229V50.1183H29.7084V51.5556H28.994V52.2747H28.2795V53.712H27.565V55.8684H26.8506V59.0154H27.565V63.0557H7.82384V63.058Z" fill="black"/>
<path d="M26.5528 1.88397V2.85029H27.3452V6.19669H28.0597V27.7823H28.0589V28.5288H28.0597V30.4913H28.7741V31.9286H29.4886V34.0849H30.203V35.5222H30.9175V36.9595L31.6296 36.9572V41.9882H30.9152V44.8636H30.2007V47.739H29.4862V49.1763H28.7718V50.6136H28.0573V51.3327H27.3429V52.77H26.6284V54.9263H25.914V59.9573H26.6284V62.1137H8.75994V55.6454H8.06031V54.9263H7.34585V54.2073H6.63139V53.4882H5.91693V52.0509H5.20247V51.3319H4.48802V49.1755H3.77356V46.3001H3.06066V42.7198H2.37116V30.0524H3.06066V27.9267H3.77512V26.8937H4.48958V26.1746H7.42463L7.40981 26.9086H8.12426C8.12426 26.9086 8.14298 24.4963 8.13908 23.3008H8.77554V22.5817H9.49V21.8627H13.4546V22.6021H14.1379V23.3008H14.8789V20.8964H15.5933V19.9418H16.3078V19.2228H20.1913V19.9599H20.9057V21.5487H21.6202V22.5817H22.4126V6.1959H23.1271V2.85029H23.8416V1.88397H26.5551M28.4247 0H21.9673V0.966319H21.2528V4.31193H20.5384V17.3419H14.4343V18.061H13.7198V19.0155H13.0054V19.9818H7.6165V20.7009H6.90204V21.4199H6.25934L6.26636 23.311C6.26714 23.5865 6.26636 23.9303 6.26636 24.2946H2.61841V25.0136H1.90396V26.0467H1.1895V28.1724H0.5V44.6077H1.1895V48.188H1.9024V51.0634H2.61685V53.2198H3.33131V53.9388H4.04577V55.3761H4.76023V56.0952H5.47469V56.8142H6.18914V57.5333H6.88878V64.0016H28.5011V58.0773H27.7867V56.8142H28.5011V54.6579H29.2156V53.2206H29.9301V52.5015H30.6445V51.0642H31.359V49.6269H32.0734V46.7515H32.7879V43.8761H33.5023V35.0717L32.7902 35.074V33.6422H32.0758V32.2049H31.3613V30.0485H30.6468V28.6112H29.9324V4.31272H29.2179V0.966319H28.4255V0H28.4247Z" fill="black"/>
<path d="M18.2015 37.7013V38.447H17.4605V37.7013H18.2015ZM18.9417 36.2977V35.552H18.2007V37.7013H18.9417V36.9556H20.2224V36.2977H18.9417ZM31.628 36.9587V41.9897H30.9135V44.8651H30.1991V47.7405H29.4846V49.1778H28.7702V50.6151H28.0557V51.3342H27.3412V52.7715H26.6268V54.9278H25.9123V59.9588H26.6268V62.1152H8.75988V55.6469H8.06024V54.9278H7.34578V54.2088H6.63132V53.4897H5.91686V52.0524H5.20241V51.3334H4.48795V49.177H3.77349V46.3016H3.06059V42.7213H2.37109V30.054H3.06059V27.9282H3.77505V26.8952H4.48951V26.1761H7.42456L7.40974 26.9101H8.1242C8.1242 26.9101 8.14292 24.4978 8.13902 23.3023H8.77548V22.5832H9.48993V21.8642H13.4546V22.6036H14.1378V23.3023H14.8788V20.8979H15.5932V19.9433H16.3077V19.2243H20.1912V19.9614H20.9057V21.5502H21.6201V22.5832H22.4126V6.19585H23.127V2.85023H23.8415V1.88391H26.555V2.85023H27.3475V6.19663H28.0619V27.7822H27.3342V26.2915H26.5932V25.5458H25.8523V24.8H21.0211V24.0543H16.7375V23.3086H14.5028V24.0543H13.7634V27.9777H14.5028V29.7761H15.2438V30.5218H15.9848V31.2676H16.7258V33.3807H17.4667V37.7037H16.7258V38.4494H13.9881V37.7037H13.2471V39.1017H13.9881V39.8475H13.2471V40.5932H13.9881V39.8475H14.729V39.1943H16.7258V39.9401H15.9848V41.4308H15.2438V42.1765H15.9848V41.4308H16.7258V39.9401H17.4667V39.1943H18.2077V38.4486H18.9487V37.7029H20.2294V36.9571H20.9704V37.7029H21.7114V36.9571H20.9704V34.8078H20.2294V32.0133H18.2085V31.2676H16.7273V30.5218H15.9864V29.7761H15.2454V27.9777H14.506V24.0543H16.7382V24.8H21.0219V25.5458H25.853V26.2915H26.594V27.7822H27.335V28.5279H28.0627V30.4904H28.7772V31.9277H29.4916V34.0841H30.2061V35.5214H30.9206V36.9587L31.6327 36.9564M15.9528 25.4429H15.2118V26.9399H15.9528V25.4429ZM23.8415 11.5149H25.3227V10.7692H26.0636V10.0234H25.3227V10.7692H23.8415V11.5149ZM23.8415 20.3005H25.3227V19.5548H26.0636V18.809H25.3227V19.5548H23.8415V20.3005ZM17.2764 21.4591H18.0174V20.7134H18.7584V19.9677H18.0174V20.7134H17.2764V21.4591ZM13.2432 36.304H13.9842V34.9931H16.3405V35.7388H17.0814V34.9931H16.3405V34.2474H13.9842V34.9931H13.2432V36.304ZM10.8533 24.1022H11.5943V23.3564H12.3353V22.6107H11.5943V23.3564H10.8533V24.1022ZM11.7612 34.7969V36.2875H12.5022V34.7969H11.7612ZM8.14682 28.3395H8.79888V31.1396H9.53985V32.5918H10.2808V34.044H11.0218V34.7898H11.7628V34.044H11.0218V32.5918H10.2808V31.1396H9.53985V28.3395H8.79888V26.9156H8.1359M9.56481 35.6972V36.443H10.9298V35.6972H9.64281M5.14001 28.4078H5.88099V27.6621H6.62196V26.9164H5.88099V27.6621H5.14001V28.4078ZM5.19383 33.8737V34.6194H5.9348V33.8737H5.19383ZM3.71265 33.3368H5.19383V31.8461H4.45285V32.5918H3.71187V33.3376M13.2416 36.2891H12.5006V39.8341H9.64281V39.0884H8.90183V37.8716H9.56481V36.4595H8.90183V38.3426H8.16085V36.8708H7.41676V35.3628H6.68982V34.6171H5.94884V35.3628H6.67578V36.8708H5.19149V36.1251H4.45051V36.8708H5.19149V37.6165H4.45051V38.3623H3.70953V39.108H4.45051V38.3623H5.19149V37.6165H7.4191V38.3489H8.16007V39.0876H8.90105V39.8333H9.64203V40.5791H11.7604V41.3248H11.0195V42.0705H9.60069V42.8163H7.44172V43.562H9.60069V42.8163H11.0195V42.0705H11.7604V41.3248H13.2416V40.5791H12.5006V39.8333H13.2416V36.2883M13.7899 47.7405H14.5309V44.8879H13.7899V47.7405ZM15.2446 48.4776H14.5036V49.9071H15.2446V48.4776ZM15.2446 42.7221H14.5036V44.1515H15.2446V42.7221ZM16.7203 26.9399H15.9793V27.6857H16.7203V26.9399ZM22.3736 27.6857H21.6326V28.4314H18.0135V27.6857H16.732V28.4314H18.0135V29.1771H21.6326V28.4314H22.3736V27.6857ZM26.7227 40.5767H25.2415V39.831H24.5006V40.5767H25.2415V41.3224H26.7227V40.5767ZM16.7203 38.447V39.1928H17.4613V38.447H16.7203ZM17.4605 33.3784H18.2015V34.8063H18.9425V35.552H20.2232V34.8063H19.4822V32.7575H18.2015V32.0117H17.4605V33.3792" fill="white"/>
</g>
<defs>
<clipPath id="clip0_12082_1618">
<rect width="33" height="64" fill="white" transform="translate(0.5)"/>
</clipPath>
</defs>
</svg>
