<svg width="512" height="512" viewBox="0 0 512 512" fill="none" xmlns="http://www.w3.org/2000/svg">
<path d="M327.115 244.477H323.901V239.076H320.617V225.534H317.334V213.361H314.05V184.976H310.836V181.763H307.621V177.091H285.931V180.304H282.717V183.313H279.503V176.883H276.288V173.67H256.995V176.883H253.781V180.096H250.567V184.907H247.352V181.694H244.138V178.068H224.502V181.694H221.288V191.107H218.073V142.506H215.337V130.231H211.882V126.777H200.269V130.402H196.456V142.098H193.72V221.453H190.859V267.165H193.72V284.124H196.456V297.665H199.192V305.805H201.929V311.206H204.665V313.942H207.402V319.343H210.138V322.078H212.874V327.479H215.611V330.215H218.347V332.95H221.083V360.033H305.1V351.892H302.364V324.81H305.1V316.67H307.837V313.934H310.573V308.529H313.309V303.128H316.046V300.393H318.782V294.988H321.518V284.182H324.255V274.288H326.991L327.126 244.47L327.115 244.477ZM297.968 183.517H301.182V180.304H304.396V183.517H301.182V186.73H297.968V183.517ZM266.7 180.3H269.914V177.087H273.129V180.3H269.914V183.513H266.7V180.3ZM250.691 187.576H253.905V184.363H264.237V187.576H253.905V206.041H257.119V215.684H260.334V218.897H257.119V215.684H253.905V206.041H250.691V187.576ZM272.859 225.326H276.073V238.182H279.287V247.825H276.073V238.182H272.859V228.539H266.839V225.326H263.625V222.113H266.839V225.326H272.859ZM266.77 231.756V234.696H257.327V239.893H254.387V234.696H257.327V231.756H266.77ZM263.555 222.113H260.341V218.9H263.555V222.113ZM247.476 228.539H250.691V247.756H253.905V250.969H250.691V247.756H247.476V228.539ZM244.262 217.46H247.476V228.539H244.262V217.46ZM234.546 184.837H237.76V181.624H240.975V184.837H237.76V188.05H234.546V184.837ZM229.482 235.79H232.083V232.85H242.073V235.79H245.014V238.729H242.073V235.79H232.083V239.276H229.482V235.79ZM244.262 252.752V255.965H229.894V252.752H244.262ZM202.162 161.314H208.595V158.101H211.809V161.314H208.595V164.527H202.162V161.314ZM207.617 208.382H210.831V211.595H207.617V208.382ZM208.456 185.796V189.009H202.024V185.796H208.456V182.583H211.67V185.796H208.456ZM208.274 240.713V244.2H204.786V240.713H208.274V237.227H211.761V233.74H208.274V230.254H211.761V233.74H220.313V211.924H217.099V196.81H220.313V201.325H223.528V204.538H220.313V211.924H223.528V237.227H226.742V249.535H229.956V252.748H226.742V249.601H223.528V237.223H211.761V240.71H208.274V240.713ZM237.691 267.727H230.916V271.148H227.494V274.568H220.996V277.989H211.076V274.568H220.996V271.148H227.494V267.727H230.916V264.306H237.691V267.727ZM241.044 264.379H237.622V260.958H241.044V257.745H244.466V261.166H241.044V264.379ZM245.97 296.224H242.755V280.152H245.97V296.224ZM249.323 302.723H246.108V296.294H249.323V302.723ZM251.377 278.445H248.162V274.091H251.377V278.445ZM253.909 250.972H267.112V254.185H253.909V250.972ZM263.964 264.24H260.815V270.67H257.601V273.883H254.387V270.67H257.601V264.24H260.75V261.027H263.964V264.24ZM282.505 250.972H279.291V254.185H270.327V257.741H267.112V260.954H263.898V257.741H267.112V254.185H270.261V250.972V245.845H272.793V250.972H279.225V247.759H282.44V250.972H282.509H282.505ZM289.963 208.981H286.749V212.194H270.67V208.981H264.237V205.768H261.023V202.555H257.809V196.125H261.023V202.555H264.237V205.768H270.67V208.981H286.749V205.768H289.963V208.981ZM304.469 266.771H298.037V263.558H294.823V260.345H298.037V263.558H304.469V266.771ZM314.046 212.401H310.832V209.188H307.618V197.219H304.403V194.006H283.469V190.793H264.31V187.58H283.469V190.793H304.403V194.006H307.618V197.219H310.832V209.188H314.046V212.401Z" fill="white"/>
</svg>
