<svg width="41" height="69" viewBox="0 0 41 69" fill="none" xmlns="http://www.w3.org/2000/svg">
<path d="M9.18368 68.178V60.5485H8.42552V59.7779H7.66737V59.0074H6.90921V57.4847H6.15106V56.7142H5.3929V55.1926H4.63475V54.421H3.87659V52.8994H3.11844V50.6062H2.36028V46.7914H1.60112V42.015H0.808594V27.4935H1.60112V5.13806H2.36028V1.84315H3.41665V0.821899H8.25165V1.79486H9.20895V5.25313H9.9671V16.2927H10.1319V15.2714H17.1898V16.2927H17.3546V15.8427H18.2451V14.9375H19.1367V14.0324H26.0996V14.9375H26.9902V15.9012H27.155V14.9951H34.782V16.3122H35.6726V17.2173H36.5632V25.2137H37.473V28.6432H38.3838V32.458H39.2935V33.9796H40.1882L40.1427 44.0236H39.3876V46.8109H38.6294V49.8552H37.8712V51.3778H37.1131V52.1483H36.3549V53.6699H35.5968V55.1926H34.8386V55.9631H34.0805V58.2553H33.3223V64.241H34.0805V68.178H9.18368Z" fill="black"/>
<path d="M7.44306 1.64386V2.61682H8.40035V6.07509H9.15851V19.7664H10.0491V17.1146H10.9397V16.0934H16.3802V17.1146H17.2708V18.0198H18.1613V16.6646H19.0519V15.7595H19.9425V14.8543H25.288V15.7595H26.1786V17.5708H27.0692V16.7232H27.9597V15.818H33.9694V17.1342H34.86V18.0393H35.7505V26.0357H36.6603V29.4652H37.5701V33.2799H38.4799V34.8015H39.3705L39.3331 43.2017H38.5749V45.989H37.8168V49.0333H37.0586V50.5559H36.3004V51.3264H35.5423V52.848H34.7841V54.3707H34.026V55.1412H33.2678V57.4344H32.5097V65.064H33.2678V67.3572H9.99248V59.7276H9.23432V58.957H8.47617V58.1865H7.71802V56.6649H6.95986V55.8943H6.20171V54.3727H5.44355V53.6022H4.6854V52.0806H3.92724V49.7874H3.16909V45.9726H2.41093V41.1951H1.61841V28.3175H2.41093V5.96002H3.16909V2.66511H4.22545V1.64386H7.44306ZM9.06045 0H2.60805V1.02125H1.55169V4.31616H0.793535V26.6716H0V42.8369H0.792524V47.6144H1.55068V51.4292H2.30883V53.7224H3.06699V55.244H3.82514V56.0145H4.5833V57.5361H5.34145V58.3067H6.09961V59.8283H6.85776V60.5988H7.61592V61.3694H8.37407V68.999H34.8872V63.4181H34.1291V59.0762H34.8872V56.783H35.6454V56.0125H36.4036V54.4898H37.1617V52.9683H37.9199V52.1977H38.678V50.6751H39.4362V47.6308H40.1943V44.8435H40.9454L40.9525 43.2068L40.9899 34.8067L40.997 33.1556H40.0983V31.634H39.1885V27.8192H38.2787V24.3897H37.3689V16.3934H36.4784V15.4882H35.5878V14.1721H27.797V14.1146H26.9064V13.2094H18.3261V14.1146H17.4355V14.4485H10.7749V4.43123H10.0167V0.97296H9.05944V0H9.06045Z" fill="black"/>
<path d="M39.3751 34.7851H38.4845V33.2635H37.5747V29.4487H36.665V26.0192H35.7552V18.0229H34.8646V17.1177H33.974V15.8016H27.9644V16.7068H27.0738V17.5544H26.1832V15.7431H25.2926V14.8379H19.9471V15.7431H19.0566V16.6482H18.166V18.0034H17.2754V17.0982H16.3848V16.077H10.9443V17.0982H10.0537V19.75H9.16315V6.05867H8.40499V2.6004H7.4477V1.62744H4.23009V2.64869H3.17373V5.9436H2.41557V28.2991H1.62305V41.1767H2.41557V45.9541H3.17373V49.7689H3.93188V52.0621H4.69004V53.5837H5.44819V54.3542H6.20635V55.8758H6.9645V56.6464H7.72265V58.168H8.48081V58.9386H9.23896V59.7091H9.99712V67.3387H33.2755V65.0455H32.5173V57.4159H33.2755V55.1228H34.0337V54.3522H34.7918V52.8296H35.55V51.308H36.3081V50.5374H37.0663V49.0148H37.8244V45.9706H38.5826V43.1832H39.3407L39.3781 34.7831L39.3751 34.7851ZM31.2992 17.6119H32.1898V16.7068H33.0804V17.6119H32.1898V18.5171H31.2992V17.6119ZM22.6361 16.7057H23.5266V15.8006H24.4172V16.7057H23.5266V17.6109H22.6361V16.7057ZM18.2004 18.7554H19.0909V17.8503H21.9537V18.7554H19.0909V23.9572H19.9815V26.6737H20.8721V27.5789H19.9815V26.6737H19.0909V23.9572H18.2004V18.7554ZM24.3424 29.3902H25.233V33.0118H26.1236V35.7283H25.233V33.0118H24.3424V30.2953H22.6745V29.3902H21.7839V28.485H22.6745V29.3902H24.3424ZM22.6553 31.2015V32.0296H20.0391V33.4937H19.2244V32.0296H20.0391V31.2015H22.6553ZM21.7647 28.485H20.8741V27.5799H21.7647V28.485ZM17.3098 30.2953H18.2004V35.7088H19.0909V36.6139H18.2004V35.7088H17.3098V30.2953ZM16.4192 27.1741H17.3098V30.2953H16.4192V27.1741ZM13.7272 17.9838H14.6178V17.0787H15.5084V17.9838H14.6178V18.889H13.7272V17.9838ZM12.3241 32.3378H13.0449V31.5097H15.8127V32.3378H16.6274V33.1659H15.8127V32.3378H13.0449V33.32H12.3241V32.3378ZM16.4192 37.1163V38.0215H12.4384V37.1163H16.4192ZM4.75473 11.357H6.5369V10.4519H7.42748V11.357H6.5369V12.2622H4.75473V11.357ZM6.26599 24.6168H7.15657V25.522H6.26599V24.6168ZM6.49849 18.2541V19.1592H4.71632V18.2541H6.49849V17.3489H7.38907V18.2541H6.49849ZM6.44794 33.7248V34.707H5.48155V33.7248H6.44794V32.7426H7.41434V31.7604H6.44794V30.7782H7.41434V31.7604H9.78382V25.6144H8.89325V21.3568H9.78382V22.6288H10.6744V23.5339H9.78382V25.6144H10.6744V32.7426H11.565V36.2101H12.4556V37.1153H11.565V36.2286H10.6744V32.7416H7.41434V33.7238H6.44794V33.7248ZM14.5986 41.3349H12.7214V42.2986H11.7732V43.2623H9.97286V44.226H7.22429V43.2623H9.97286V42.2986H11.7732V41.3349H12.7214V40.3712H14.5986V41.3349ZM15.5276 40.3917H14.5794V39.428H15.5276V38.5229H16.4758V39.4866H15.5276V40.3917ZM16.8923 49.3631H16.0017V44.8353H16.8923V49.3631ZM17.8213 51.1939H16.9307V49.3826H17.8213V51.1939ZM18.3904 44.3544H17.4998V43.1277H18.3904V44.3544ZM19.0919 36.6149H22.7503V37.5201H19.0919V36.6149ZM21.8779 40.3527H21.0055V42.164H20.1149V43.0692H19.2244V42.164H20.1149V40.3527H20.9873V39.4475H21.8779V40.3527ZM27.0152 36.6149H26.1246V37.5201H23.6409V38.5218H22.7503V39.427H21.8597V38.5218H22.7503V37.5201H23.6227V36.6149V35.1704H24.3242V36.6149H26.1064V35.7098H26.997V36.6149H27.0162H27.0152ZM29.0814 24.7853H28.1908V25.6905H23.7359V24.7853H21.9537V23.8802H21.0631V22.975H20.1726V21.1637H21.0631V22.975H21.9537V23.8802H23.7359V24.7853H28.1908V23.8802H29.0814V24.7853ZM33.1006 41.0657H31.3185V40.1606H30.4279V39.2554H31.3185V40.1606H33.1006V41.0657ZM35.7542 25.749H34.8636V24.8439H33.973V21.4719H33.0824V20.5668H27.282V19.6616H21.9739V18.7565H27.282V19.6616H33.0824V20.5668H33.973V21.4719H34.8636V24.8439H35.7542V25.749Z" fill="white"/>
</svg>
