<svg width="233" height="44" viewBox="0 0 233 44" fill="none" xmlns="http://www.w3.org/2000/svg">
<path d="M224.204 29.4105H205.513V43.1537H196.718V6.87162H203.589V0H226.128V6.87162H233V43.1537H224.204V29.4105ZM224.204 20.6148V8.79567H205.513V20.6148H224.204Z" fill="#FAF9F9"/>
<path d="M193.656 8.79567H179.913V43.1537H171.117V8.79567H157.374V0H193.656V8.79567Z" fill="#FAF9F9"/>
<path d="M145.517 29.4105H126.826V43.1537H118.03V6.87162H124.902V0H147.441V6.87162H154.312V43.1537H145.517V29.4105ZM145.517 20.6148V8.79567H126.826V20.6148H145.517Z" fill="#FAF9F9"/>
<path d="M92.4307 22.5389V15.6673H87.4832V43.1537H78.6875V0H87.4832V6.87162H94.3548V13.7432H101.226V20.6148H106.174V0H114.97V43.1537H106.174V29.4105H99.3023V22.5389H92.4307Z" fill="#FAF9F9"/>
<path d="M68.7543 0V6.87162H75.6259V36.2821H68.7543V43.1537H46.2154V36.2821H39.3438V6.87162H46.2154V0H68.7543ZM66.8302 8.79567H48.1394V34.3581H66.8302V8.79567Z" fill="#FAF9F9"/>
<path d="M13.7432 29.4105V15.6673H8.79567V43.1537H0V0H8.79567V6.87162H15.6673V13.7432H20.6148V6.87162H27.4865V0H36.2821V43.1537H27.4865V15.6673H22.5389V29.4105H13.7432Z" fill="#FAF9F9"/>
</svg>
