<svg width="225" height="44" viewBox="0 0 225 44" fill="none" xmlns="http://www.w3.org/2000/svg">
<path d="M215.401 29.4105H196.71V43.1537H187.915V6.87162H194.786V0H217.325V6.87162H224.197V43.1537H215.401V29.4105ZM215.401 20.6148V8.79567H196.71V20.6148H215.401Z" fill="#FAF9F9"/>
<path d="M184.855 8.79567H171.112V43.1537H162.316V8.79567H148.573V0H184.855V8.79567Z" fill="#FAF9F9"/>
<path d="M138.641 0V6.87162H145.513V36.2821H138.641V43.1537H116.102V36.2821H109.231V6.87162H116.102V0H138.641ZM136.717 8.79567H118.026V34.3581H136.717V8.79567Z" fill="#FAF9F9"/>
<path d="M83.632 22.5389V15.6673H78.684V43.1537H69.889V0H78.684V6.87162H85.556V13.7432H92.427V20.6148H97.375V0H106.171V43.1537H97.375V29.4105H90.503V22.5389H83.632Z" fill="#FAF9F9"/>
<path d="M66.829 8.79567H57.483V34.3581H66.829V43.1537H39.342V34.3581H48.688V8.79567H39.342V0H66.829V8.79567Z" fill="#FAF9F9"/>
<path d="M29.4105 0V6.87162H36.2821V36.2821H29.4105V43.1537H6.87162V36.2821H0V6.87162H6.87162V0H29.4105ZM27.4865 8.79567H8.79567V18.6914H27.4865V8.79567ZM27.4865 24.4629H8.79567V34.3581H27.4865V24.4629Z" fill="#FAF9F9"/>
</svg>
